<svg width="890" height="53" viewBox="0 0 890 53" fill="none" xmlns="http://www.w3.org/2000/svg">
<path d="M0.76 40.5V1.3H4.68V19.78L21.032 1.3H26.128L8.824 20.788V21.012L26.296 40.5H21.032L4.68 22.3V40.5H0.76ZM46.1541 7.348C45.2208 7.348 44.3995 7.012 43.6901 6.34C43.0181 5.63067 42.6821 4.80933 42.6821 3.876C42.6821 2.90533 43.0181 2.084 43.6901 1.412C44.3995 0.739999 45.2208 0.403999 46.1541 0.403999C47.1248 0.403999 47.9461 0.739999 48.6181 1.412C49.2901 2.084 49.6261 2.90533 49.6261 3.876C49.6261 4.80933 49.2901 5.63067 48.6181 6.34C47.9461 7.012 47.1248 7.348 46.1541 7.348ZM35.4581 40.5V37.14H44.4181V17.204C44.4181 16.4573 44.0448 16.084 43.2981 16.084H36.5781V12.724H44.4181C47.0315 12.724 48.3381 14.0307 48.3381 16.644V37.14H57.2981V40.5H35.4581ZM80.4043 41.172C78.0149 41.172 75.8496 40.612 73.9083 39.492C71.9669 38.3347 70.4176 36.6733 69.2603 34.508C68.1029 32.3427 67.5243 29.7107 67.5243 26.612C67.5243 23.5133 68.1029 20.8813 69.2603 18.716C70.4549 16.5507 72.0229 14.908 73.9643 13.788C75.9056 12.6307 78.0523 12.052 80.4043 12.052C83.8016 12.052 86.4709 12.892 88.4123 14.572C90.3909 16.252 91.6603 18.4733 92.2203 21.236H88.3003C87.8149 19.556 86.8816 18.2307 85.5003 17.26C84.1563 16.252 82.4576 15.748 80.4043 15.748C78.8736 15.748 77.4363 16.14 76.0923 16.924C74.7483 17.708 73.6469 18.9027 72.7883 20.508C71.9669 22.076 71.5563 24.1107 71.5563 26.612C71.5563 29.076 71.9669 31.1293 72.7883 32.772C73.6469 34.3773 74.7483 35.572 76.0923 36.356C77.4363 37.14 78.8736 37.532 80.4043 37.532C82.6069 37.532 84.3616 37.028 85.6683 36.02C86.9749 34.9747 87.8523 33.6307 88.3003 31.988H92.2203C91.5483 34.8627 90.1856 37.1213 88.1323 38.764C86.1163 40.3693 83.5403 41.172 80.4043 41.172ZM103.454 40.5V0.179998H107.374V24.54L119.526 12.724H124.566L111.742 25.1V25.436L126.078 40.5H121.206L107.374 25.94V40.5H103.454ZM147.449 41.172C143.977 41.172 141.139 40.3507 138.937 38.708C136.734 37.0653 135.502 34.788 135.241 31.876H139.329C139.553 33.5187 140.374 34.8813 141.793 35.964C143.249 37.0467 145.171 37.588 147.561 37.588C149.875 37.588 151.574 37.084 152.657 36.076C153.739 35.0307 154.281 33.892 154.281 32.66C154.281 30.9427 153.627 29.7853 152.321 29.188C151.051 28.5907 149.091 28.1427 146.441 27.844C143.417 27.508 140.953 26.724 139.049 25.492C137.145 24.2227 136.193 22.3373 136.193 19.836C136.193 17.6333 137.126 15.7853 138.993 14.292C140.897 12.7987 143.454 12.052 146.665 12.052C149.875 12.052 152.395 12.78 154.225 14.236C156.091 15.6547 157.137 17.7453 157.361 20.508H153.385C153.31 19.052 152.619 17.876 151.313 16.98C150.043 16.084 148.457 15.636 146.553 15.636C144.537 15.636 142.969 16.0093 141.849 16.756C140.766 17.4653 140.225 18.4733 140.225 19.78C140.225 20.9373 140.822 21.9267 142.017 22.748C143.211 23.532 145.115 24.0547 147.729 24.316C149.67 24.5027 151.425 24.8573 152.993 25.38C154.598 25.8653 155.886 26.668 156.857 27.788C157.827 28.908 158.312 30.476 158.312 32.492C158.35 34.1347 157.902 35.628 156.969 36.972C156.035 38.2787 154.747 39.3053 153.105 40.052C151.499 40.7987 149.614 41.172 147.449 41.172ZM183.547 40.5C181.12 40.5 179.216 39.9213 177.835 38.764C176.491 37.5693 175.819 35.4413 175.819 32.38V16.084H168.763V12.724H172.963C174.904 12.724 176.005 11.7907 176.267 9.924L176.939 5.724H179.739V12.724H190.939V16.084H179.739V32.38C179.739 34.06 180.112 35.236 180.859 35.908C181.643 36.58 182.987 36.916 184.891 36.916H190.939V40.5H183.547ZM212.029 41.172C209.826 41.172 207.997 40.78 206.541 39.996C205.122 39.212 204.058 38.1667 203.349 36.86C202.677 35.5533 202.341 34.1347 202.341 32.604C202.341 29.692 203.405 27.5267 205.533 26.108C207.698 24.652 210.423 23.924 213.709 23.924H221.661V23.42C221.661 20.8067 221.026 18.8467 219.757 17.54C218.525 16.196 216.751 15.524 214.437 15.524C212.495 15.524 210.89 15.9533 209.621 16.812C208.389 17.6333 207.605 18.94 207.269 20.732H203.125C203.311 18.8653 203.927 17.2973 204.973 16.028C206.055 14.7213 207.418 13.732 209.061 13.06C210.703 12.388 212.495 12.052 214.437 12.052C218.319 12.052 221.138 13.116 222.893 15.244C224.685 17.3347 225.581 20.06 225.581 23.42V40.5H222.221L221.829 36.02H221.493C220.671 37.4013 219.533 38.6147 218.077 39.66C216.621 40.668 214.605 41.172 212.029 41.172ZM212.645 37.588C214.511 37.588 216.117 37.1213 217.461 36.188C218.805 35.2547 219.831 34.0413 220.541 32.548C221.287 31.0547 221.661 29.4867 221.661 27.844V27.284H213.989C211.226 27.284 209.266 27.7693 208.109 28.74C206.989 29.7107 206.429 30.9613 206.429 32.492C206.429 34.06 206.951 35.3107 207.997 36.244C209.042 37.14 210.591 37.588 212.645 37.588ZM235.975 40.5V37.14H243.367V17.204C243.367 16.9053 243.255 16.644 243.031 16.42C242.807 16.196 242.546 16.084 242.247 16.084H236.815V12.724H243.647C244.73 12.724 245.57 13.004 246.167 13.564C246.764 14.124 247.063 14.9453 247.063 16.028V17.596H247.287C247.698 15.8413 248.5 14.4787 249.695 13.508C250.927 12.5373 252.514 12.052 254.455 12.052H260.055V16.196H254.455C252.178 16.196 250.404 16.9427 249.135 18.436C247.903 19.9293 247.287 21.9267 247.287 24.428V37.14H256.079V40.5H235.975ZM284.281 40.5C281.854 40.5 279.95 39.9213 278.569 38.764C277.225 37.5693 276.553 35.4413 276.553 32.38V16.084H269.497V12.724H273.697C275.638 12.724 276.74 11.7907 277.001 9.924L277.673 5.724H280.473V12.724H291.673V16.084H280.473V32.38C280.473 34.06 280.846 35.236 281.593 35.908C282.377 36.58 283.721 36.916 285.625 36.916H291.673V40.5H284.281ZM340.293 52.82L347.293 37.532H345.725L334.581 12.724H338.837L348.469 35.012L358.717 12.724H362.749L344.381 52.82H340.293ZM382.159 41.172C379.583 41.172 377.306 40.5747 375.327 39.38C373.349 38.1853 371.799 36.5053 370.679 34.34C369.559 32.1373 368.999 29.5613 368.999 26.612C368.999 23.6253 369.559 21.0493 370.679 18.884C371.799 16.7187 373.349 15.0387 375.327 13.844C377.306 12.6493 379.583 12.052 382.159 12.052C384.735 12.052 387.013 12.6493 388.991 13.844C390.97 15.0387 392.519 16.7187 393.639 18.884C394.759 21.0493 395.319 23.6253 395.319 26.612C395.319 29.5613 394.759 32.1373 393.639 34.34C392.519 36.5053 390.97 38.1853 388.991 39.38C387.013 40.5747 384.735 41.172 382.159 41.172ZM382.159 37.476C383.877 37.476 385.407 37.084 386.751 36.3C388.133 35.516 389.234 34.3213 390.055 32.716C390.877 31.1107 391.287 29.076 391.287 26.612C391.287 24.1107 390.877 22.076 390.055 20.508C389.234 18.9027 388.133 17.708 386.751 16.924C385.407 16.14 383.877 15.748 382.159 15.748C380.479 15.748 378.949 16.14 377.567 16.924C376.186 17.708 375.085 18.9027 374.263 20.508C373.442 22.076 373.031 24.1107 373.031 26.612C373.031 29.076 373.442 31.1107 374.263 32.716C375.085 34.3213 376.186 35.516 377.567 36.3C378.949 37.084 380.479 37.476 382.159 37.476ZM414.114 41.172C410.716 41.172 408.178 40.1827 406.498 38.204C404.818 36.188 403.978 33.3507 403.978 29.692V12.724H407.898V29.244C407.898 31.82 408.476 33.836 409.634 35.292C410.791 36.748 412.564 37.476 414.954 37.476C417.268 37.476 419.247 36.692 420.89 35.124C422.532 33.5187 423.354 31.2227 423.354 28.236V12.724H427.274V40.5H424.082L423.578 36.3H423.354C422.607 37.6067 421.412 38.7453 419.77 39.716C418.164 40.6867 416.279 41.172 414.114 41.172ZM437.444 40.5V37.14H444.836V17.204C444.836 16.9053 444.724 16.644 444.5 16.42C444.276 16.196 444.014 16.084 443.716 16.084H438.284V12.724H445.116C446.198 12.724 447.038 13.004 447.636 13.564C448.233 14.124 448.532 14.9453 448.532 16.028V17.596H448.756C449.166 15.8413 449.969 14.4787 451.164 13.508C452.396 12.5373 453.982 12.052 455.924 12.052H461.524V16.196H455.924C453.646 16.196 451.873 16.9427 450.604 18.436C449.372 19.9293 448.756 21.9267 448.756 24.428V37.14H457.548V40.5H437.444ZM502.696 40.5V1.3H506.952L516.472 20.564L525.936 1.3H530.248V40.5H526.328V8.972L517.928 25.94H515.016L506.616 9.028V40.5H502.696ZM547.81 41.172C545.607 41.172 543.778 40.78 542.322 39.996C540.903 39.212 539.839 38.1667 539.13 36.86C538.458 35.5533 538.122 34.1347 538.122 32.604C538.122 29.692 539.186 27.5267 541.314 26.108C543.479 24.652 546.205 23.924 549.49 23.924H557.442V23.42C557.442 20.8067 556.807 18.8467 555.538 17.54C554.306 16.196 552.533 15.524 550.218 15.524C548.277 15.524 546.671 15.9533 545.402 16.812C544.17 17.6333 543.386 18.94 543.05 20.732H538.906C539.093 18.8653 539.709 17.2973 540.754 16.028C541.837 14.7213 543.199 13.732 544.842 13.06C546.485 12.388 548.277 12.052 550.218 12.052C554.101 12.052 556.919 13.116 558.674 15.244C560.466 17.3347 561.362 20.06 561.362 23.42V40.5H558.002L557.61 36.02H557.274C556.453 37.4013 555.314 38.6147 553.858 39.66C552.402 40.668 550.386 41.172 547.81 41.172ZM548.426 37.588C550.293 37.588 551.898 37.1213 553.242 36.188C554.586 35.2547 555.613 34.0413 556.322 32.548C557.069 31.0547 557.442 29.4867 557.442 27.844V27.284H549.77C547.007 27.284 545.047 27.7693 543.89 28.74C542.77 29.7107 542.21 30.9613 542.21 32.492C542.21 34.06 542.733 35.3107 543.778 36.244C544.823 37.14 546.373 37.588 548.426 37.588ZM583.964 41.172C580.492 41.172 577.655 40.3507 575.452 38.708C573.249 37.0653 572.017 34.788 571.756 31.876H575.844C576.068 33.5187 576.889 34.8813 578.308 35.964C579.764 37.0467 581.687 37.588 584.076 37.588C586.391 37.588 588.089 37.084 589.172 36.076C590.255 35.0307 590.796 33.892 590.796 32.66C590.796 30.9427 590.143 29.7853 588.836 29.188C587.567 28.5907 585.607 28.1427 582.956 27.844C579.932 27.508 577.468 26.724 575.564 25.492C573.66 24.2227 572.708 22.3373 572.708 19.836C572.708 17.6333 573.641 15.7853 575.508 14.292C577.412 12.7987 579.969 12.052 583.18 12.052C586.391 12.052 588.911 12.78 590.74 14.236C592.607 15.6547 593.652 17.7453 593.876 20.508H589.9C589.825 19.052 589.135 17.876 587.828 16.98C586.559 16.084 584.972 15.636 583.068 15.636C581.052 15.636 579.484 16.0093 578.364 16.756C577.281 17.4653 576.74 18.4733 576.74 19.78C576.74 20.9373 577.337 21.9267 578.532 22.748C579.727 23.532 581.631 24.0547 584.244 24.316C586.185 24.5027 587.94 24.8573 589.508 25.38C591.113 25.8653 592.401 26.668 593.372 27.788C594.343 28.908 594.828 30.476 594.828 32.492C594.865 34.1347 594.417 35.628 593.484 36.972C592.551 38.2787 591.263 39.3053 589.62 40.052C588.015 40.7987 586.129 41.172 583.964 41.172ZM620.062 40.5C617.636 40.5 615.732 39.9213 614.35 38.764C613.006 37.5693 612.334 35.4413 612.334 32.38V16.084H605.278V12.724H609.478C611.42 12.724 612.521 11.7907 612.782 9.924L613.454 5.724H616.254V12.724H627.454V16.084H616.254V32.38C616.254 34.06 616.628 35.236 617.374 35.908C618.158 36.58 619.502 36.916 621.406 36.916H627.454V40.5H620.062ZM651.064 41.172C648.488 41.172 646.211 40.5747 644.232 39.38C642.254 38.148 640.686 36.4493 639.528 34.284C638.408 32.0813 637.848 29.5053 637.848 26.556C637.848 23.6067 638.408 21.0493 639.528 18.884C640.648 16.7187 642.198 15.0387 644.176 13.844C646.192 12.6493 648.526 12.052 651.176 12.052C653.864 12.052 656.142 12.668 658.008 13.9C659.875 15.0947 661.294 16.6627 662.264 18.604C663.235 20.5453 663.72 22.636 663.72 24.876C663.72 25.2493 663.72 25.6413 663.72 26.052C663.72 26.4627 663.702 26.9293 663.664 27.452H641.656C641.768 29.7293 642.272 31.6147 643.168 33.108C644.102 34.564 645.259 35.6653 646.64 36.412C648.059 37.1213 649.534 37.476 651.064 37.476C653.342 37.476 655.096 37.0093 656.328 36.076C657.598 35.1053 658.531 33.7987 659.128 32.156H662.936C662.339 34.6573 661.051 36.7853 659.072 38.54C657.131 40.2947 654.462 41.172 651.064 41.172ZM651.008 15.636C648.656 15.636 646.584 16.364 644.792 17.82C643.038 19.276 642.011 21.292 641.712 23.868H659.912C659.763 21.2547 658.867 19.2387 657.224 17.82C655.619 16.364 653.547 15.636 651.008 15.636ZM672.491 40.5V37.14H679.883V17.204C679.883 16.9053 679.771 16.644 679.547 16.42C679.323 16.196 679.061 16.084 678.763 16.084H673.331V12.724H680.163C681.245 12.724 682.085 13.004 682.683 13.564C683.28 14.124 683.579 14.9453 683.579 16.028V17.596H683.803C684.213 15.8413 685.016 14.4787 686.211 13.508C687.443 12.5373 689.029 12.052 690.971 12.052H696.571V16.196H690.971C688.693 16.196 686.92 16.9427 685.651 18.436C684.419 19.9293 683.803 21.9267 683.803 24.428V37.14H692.595V40.5H672.491ZM705.789 52.82V12.724H708.813L709.373 17.54H709.709C710.418 15.972 711.575 14.6653 713.181 13.62C714.786 12.5747 716.671 12.052 718.837 12.052C721.151 12.052 723.205 12.6307 724.997 13.788C726.789 14.908 728.207 16.5693 729.253 18.772C730.298 20.9373 730.821 23.5693 730.821 26.668C730.821 29.7667 730.298 32.3987 729.253 34.564C728.207 36.7293 726.77 38.372 724.941 39.492C723.111 40.612 720.983 41.172 718.557 41.172C716.354 41.172 714.487 40.6867 712.957 39.716C711.426 38.708 710.343 37.5507 709.709 36.244V52.82H705.789ZM718.277 37.476C720.778 37.476 722.831 36.58 724.437 34.788C726.042 32.996 726.845 30.2707 726.845 26.612C726.845 22.9533 726.042 20.228 724.437 18.436C722.831 16.644 720.778 15.748 718.277 15.748C715.775 15.748 713.722 16.644 712.117 18.436C710.511 20.228 709.709 22.9533 709.709 26.612C709.709 30.2707 710.511 32.996 712.117 34.788C713.722 36.58 715.775 37.476 718.277 37.476ZM751.295 7.348C750.361 7.348 749.54 7.012 748.831 6.34C748.159 5.63067 747.823 4.80933 747.823 3.876C747.823 2.90533 748.159 2.084 748.831 1.412C749.54 0.739999 750.361 0.403999 751.295 0.403999C752.265 0.403999 753.087 0.739999 753.759 1.412C754.431 2.084 754.767 2.90533 754.767 3.876C754.767 4.80933 754.431 5.63067 753.759 6.34C753.087 7.012 752.265 7.348 751.295 7.348ZM740.599 40.5V37.14H749.559V17.204C749.559 16.4573 749.185 16.084 748.439 16.084H741.719V12.724H749.559C752.172 12.724 753.479 14.0307 753.479 16.644V37.14H762.439V40.5H740.599ZM785.377 41.172C782.801 41.172 780.524 40.5747 778.545 39.38C776.566 38.148 774.998 36.4493 773.841 34.284C772.721 32.0813 772.161 29.5053 772.161 26.556C772.161 23.6067 772.721 21.0493 773.841 18.884C774.961 16.7187 776.51 15.0387 778.489 13.844C780.505 12.6493 782.838 12.052 785.489 12.052C788.177 12.052 790.454 12.668 792.321 13.9C794.188 15.0947 795.606 16.6627 796.577 18.604C797.548 20.5453 798.033 22.636 798.033 24.876C798.033 25.2493 798.033 25.6413 798.033 26.052C798.033 26.4627 798.014 26.9293 797.977 27.452H775.969C776.081 29.7293 776.585 31.6147 777.481 33.108C778.414 34.564 779.572 35.6653 780.953 36.412C782.372 37.1213 783.846 37.476 785.377 37.476C787.654 37.476 789.409 37.0093 790.641 36.076C791.91 35.1053 792.844 33.7987 793.441 32.156H797.249C796.652 34.6573 795.364 36.7853 793.385 38.54C791.444 40.2947 788.774 41.172 785.377 41.172ZM785.321 15.636C782.969 15.636 780.897 16.364 779.105 17.82C777.35 19.276 776.324 21.292 776.025 23.868H794.225C794.076 21.2547 793.18 19.2387 791.537 17.82C789.932 16.364 787.86 15.636 785.321 15.636ZM819.123 41.172C816.734 41.172 814.568 40.612 812.627 39.492C810.686 38.3347 809.136 36.6733 807.979 34.508C806.822 32.3427 806.243 29.7107 806.243 26.612C806.243 23.5133 806.822 20.8813 807.979 18.716C809.174 16.5507 810.742 14.908 812.683 13.788C814.624 12.6307 816.771 12.052 819.123 12.052C822.52 12.052 825.19 12.892 827.131 14.572C829.11 16.252 830.379 18.4733 830.939 21.236H827.019C826.534 19.556 825.6 18.2307 824.219 17.26C822.875 16.252 821.176 15.748 819.123 15.748C817.592 15.748 816.155 16.14 814.811 16.924C813.467 17.708 812.366 18.9027 811.507 20.508C810.686 22.076 810.275 24.1107 810.275 26.612C810.275 29.076 810.686 31.1293 811.507 32.772C812.366 34.3773 813.467 35.572 814.811 36.356C816.155 37.14 817.592 37.532 819.123 37.532C821.326 37.532 823.08 37.028 824.387 36.02C825.694 34.9747 826.571 33.6307 827.019 31.988H830.939C830.267 34.8627 828.904 37.1213 826.851 38.764C824.835 40.3693 822.259 41.172 819.123 41.172ZM852.533 41.172C849.957 41.172 847.68 40.5747 845.701 39.38C843.722 38.148 842.154 36.4493 840.997 34.284C839.877 32.0813 839.317 29.5053 839.317 26.556C839.317 23.6067 839.877 21.0493 840.997 18.884C842.117 16.7187 843.666 15.0387 845.645 13.844C847.661 12.6493 849.994 12.052 852.645 12.052C855.333 12.052 857.61 12.668 859.477 13.9C861.344 15.0947 862.762 16.6627 863.733 18.604C864.704 20.5453 865.189 22.636 865.189 24.876C865.189 25.2493 865.189 25.6413 865.189 26.052C865.189 26.4627 865.17 26.9293 865.133 27.452H843.125C843.237 29.7293 843.741 31.6147 844.637 33.108C845.57 34.564 846.728 35.6653 848.109 36.412C849.528 37.1213 851.002 37.476 852.533 37.476C854.81 37.476 856.565 37.0093 857.797 36.076C859.066 35.1053 860 33.7987 860.597 32.156H864.405C863.808 34.6573 862.52 36.7853 860.541 38.54C858.6 40.2947 855.93 41.172 852.533 41.172ZM852.477 15.636C850.125 15.636 848.053 16.364 846.261 17.82C844.506 19.276 843.48 21.292 843.181 23.868H861.381C861.232 21.2547 860.336 19.2387 858.693 17.82C857.088 16.364 855.016 15.636 852.477 15.636ZM883.927 26.78L883.479 1.3H888.183L887.679 26.78H883.927ZM885.831 40.5C884.823 40.5 883.946 40.1453 883.199 39.436C882.49 38.6893 882.135 37.812 882.135 36.804C882.135 35.796 882.49 34.9373 883.199 34.228C883.946 33.4813 884.823 33.108 885.831 33.108C886.839 33.108 887.698 33.4813 888.407 34.228C889.154 34.9373 889.527 35.796 889.527 36.804C889.527 37.812 889.154 38.6893 888.407 39.436C887.698 40.1453 886.839 40.5 885.831 40.5Z" fill="#F9FAFC"/>
</svg>
