<svg width="28" height="19" viewBox="0 0 28 19" fill="none" xmlns="http://www.w3.org/2000/svg">
<path d="M7.2 18.288C5.904 18.288 4.768 17.936 3.792 17.232C2.832 16.528 2.088 15.528 1.56 14.232C1.032 12.92 0.768 11.376 0.768 9.6C0.768 7.808 1.032 6.264 1.56 4.968C2.088 3.672 2.832 2.672 3.792 1.968C4.768 1.264 5.904 0.912 7.2 0.912C8.512 0.912 9.648 1.264 10.608 1.968C11.568 2.672 12.312 3.672 12.84 4.968C13.368 6.264 13.632 7.808 13.632 9.6C13.632 11.376 13.368 12.92 12.84 14.232C12.312 15.528 11.568 16.528 10.608 17.232C9.648 17.936 8.512 18.288 7.2 18.288ZM3.36 9.6C3.36 10.496 3.44 11.312 3.6 12.048C3.76 12.784 3.984 13.424 4.272 13.968L8.472 3.576C8.072 3.384 7.648 3.288 7.2 3.288C6.08 3.288 5.16 3.856 4.44 4.992C3.72 6.112 3.36 7.648 3.36 9.6ZM7.2 15.936C7.952 15.936 8.616 15.68 9.192 15.168C9.768 14.656 10.216 13.928 10.536 12.984C10.872 12.024 11.04 10.896 11.04 9.6C11.04 8.704 10.96 7.888 10.8 7.152C10.64 6.416 10.416 5.784 10.128 5.256L5.928 15.648C6.328 15.84 6.752 15.936 7.2 15.936ZM15.9746 18V15.72H20.1266V4.2L16.1666 4.92V2.856L21.1106 1.2H22.6706V15.72H27.1346V18H15.9746Z" fill="#111C24"/>
</svg>
