<svg width="28" height="19" viewBox="0 0 28 19" fill="none" xmlns="http://www.w3.org/2000/svg">
<path d="M7.2 18.288C5.904 18.288 4.768 17.936 3.792 17.232C2.832 16.528 2.088 15.528 1.56 14.232C1.032 12.92 0.768 11.376 0.768 9.6C0.768 7.808 1.032 6.264 1.56 4.968C2.088 3.672 2.832 2.672 3.792 1.968C4.768 1.264 5.904 0.912 7.2 0.912C8.512 0.912 9.648 1.264 10.608 1.968C11.568 2.672 12.312 3.672 12.84 4.968C13.368 6.264 13.632 7.808 13.632 9.6C13.632 11.376 13.368 12.92 12.84 14.232C12.312 15.528 11.568 16.528 10.608 17.232C9.648 17.936 8.512 18.288 7.2 18.288ZM3.36 9.6C3.36 10.496 3.44 11.312 3.6 12.048C3.76 12.784 3.984 13.424 4.272 13.968L8.472 3.576C8.072 3.384 7.648 3.288 7.2 3.288C6.08 3.288 5.16 3.856 4.44 4.992C3.72 6.112 3.36 7.648 3.36 9.6ZM7.2 15.936C7.952 15.936 8.616 15.68 9.192 15.168C9.768 14.656 10.216 13.928 10.536 12.984C10.872 12.024 11.04 10.896 11.04 9.6C11.04 8.704 10.96 7.888 10.8 7.152C10.64 6.416 10.416 5.784 10.128 5.256L5.928 15.648C6.328 15.84 6.752 15.936 7.2 15.936ZM21.7106 18.288C20.6066 18.288 19.6066 18.08 18.7106 17.664C17.8146 17.248 17.1026 16.64 16.5746 15.84C16.0466 15.024 15.7586 14.04 15.7106 12.888H18.2546C18.3026 13.768 18.6226 14.496 19.2146 15.072C19.8226 15.648 20.6546 15.936 21.7106 15.936C22.7506 15.936 23.5666 15.68 24.1586 15.168C24.7506 14.656 25.0466 13.952 25.0466 13.056C25.0466 12.064 24.6866 11.336 23.9666 10.872C23.2466 10.408 22.3666 10.176 21.3266 10.176H19.8386V7.92H21.1106C22.0546 7.92 22.8306 7.728 23.4386 7.344C24.0466 6.96 24.3506 6.36 24.3506 5.544C24.3506 4.84 24.1186 4.288 23.6546 3.888C23.1906 3.472 22.5346 3.264 21.6866 3.264C20.8226 3.264 20.1346 3.496 19.6226 3.96C19.1106 4.424 18.8226 5.016 18.7586 5.736H16.2386C16.2866 4.776 16.5426 3.936 17.0066 3.216C17.4706 2.496 18.1026 1.936 18.9026 1.536C19.7026 1.12 20.6306 0.912 21.6866 0.912C22.8386 0.912 23.7986 1.112 24.5666 1.512C25.3346 1.896 25.9106 2.416 26.2946 3.072C26.6786 3.728 26.8706 4.464 26.8706 5.28C26.8706 6.112 26.6226 6.832 26.1266 7.44C25.6466 8.032 25.0626 8.464 24.3746 8.736V8.88C25.3026 9.136 26.0626 9.616 26.6546 10.32C27.2626 11.008 27.5666 11.936 27.5666 13.104C27.5666 14.048 27.3346 14.92 26.8706 15.72C26.4226 16.504 25.7586 17.128 24.8786 17.592C24.0146 18.056 22.9586 18.288 21.7106 18.288Z" fill="#111C24"/>
</svg>
