<svg width="28" height="19" viewBox="0 0 28 19" fill="none" xmlns="http://www.w3.org/2000/svg">
<path d="M7.2 18.288C5.904 18.288 4.768 17.936 3.792 17.232C2.832 16.528 2.088 15.528 1.56 14.232C1.032 12.92 0.768 11.376 0.768 9.6C0.768 7.808 1.032 6.264 1.56 4.968C2.088 3.672 2.832 2.672 3.792 1.968C4.768 1.264 5.904 0.912 7.2 0.912C8.512 0.912 9.648 1.264 10.608 1.968C11.568 2.672 12.312 3.672 12.84 4.968C13.368 6.264 13.632 7.808 13.632 9.6C13.632 11.376 13.368 12.92 12.84 14.232C12.312 15.528 11.568 16.528 10.608 17.232C9.648 17.936 8.512 18.288 7.2 18.288ZM3.36 9.6C3.36 10.496 3.44 11.312 3.6 12.048C3.76 12.784 3.984 13.424 4.272 13.968L8.472 3.576C8.072 3.384 7.648 3.288 7.2 3.288C6.08 3.288 5.16 3.856 4.44 4.992C3.72 6.112 3.36 7.648 3.36 9.6ZM7.2 15.936C7.952 15.936 8.616 15.68 9.192 15.168C9.768 14.656 10.216 13.928 10.536 12.984C10.872 12.024 11.04 10.896 11.04 9.6C11.04 8.704 10.96 7.888 10.8 7.152C10.64 6.416 10.416 5.784 10.128 5.256L5.928 15.648C6.328 15.84 6.752 15.936 7.2 15.936ZM16.0706 18V15.984C17.7186 14.672 19.1586 13.464 20.3906 12.36C21.6386 11.256 22.6146 10.192 23.3186 9.168C24.0226 8.144 24.3746 7.104 24.3746 6.048C24.3746 5.168 24.1266 4.48 23.6306 3.984C23.1346 3.472 22.4626 3.216 21.6146 3.216C20.6386 3.216 19.8866 3.528 19.3586 4.152C18.8306 4.76 18.5666 5.488 18.5666 6.336H16.0946C16.1106 5.152 16.3586 4.16 16.8386 3.36C17.3186 2.56 17.9666 1.952 18.7826 1.536C19.6146 1.12 20.5586 0.912 21.6146 0.912C23.3266 0.912 24.6466 1.376 25.5746 2.304C26.5026 3.216 26.9666 4.44 26.9666 5.976C26.9666 6.952 26.7506 7.896 26.3186 8.808C25.9026 9.704 25.3506 10.56 24.6626 11.376C23.9746 12.192 23.2066 12.968 22.3586 13.704C21.5266 14.44 20.6866 15.144 19.8386 15.816H27.4226V18H16.0706Z" fill="#111C24"/>
</svg>
